PathFileType	4	(X/Y/Z)	C:/Users/beibeiliu/ov580/test_trc/User3\sequence.15_training_dense_left.trc
DataRate	CameraRate	NumFrames	NumMarkers	Units	OrigDataRate	OrigDataStartFrame	OrigNumFrames
120	120	7	19	mm	120	1	87
Frame#	Time	ThumbCMC			ThumbMCP			ThumbIP			ThumbTip			IndexMCP			IndexPIP			IndexTip			MiddleMCP			MiddlePIP			MiddleTip			RingMCP			RingPIP			RingTip			PinkyMCP			PinkyPIP			PinkyTip			BackHand1			BackHand2			BackHand3	
		X0	Y0	Z0	X1	Y1	Z1	X2	Y2	Z2	X3	Y3	Z3	X4	Y4	Z4	X5	Y5	Z5	X6	Y6	Z6	X7	Y7	Z7	X8	Y8	Z8	X9	Y9	Z9	X10	Y10	Z10	X11	Y11	Z11	X12	Y12	Z12	X13	Y13	Z13	X14	Y14	Z14	X15	Y15	Z15	X16	Y16	Z16	X17	Y17	Z17	X18	Y18	Z18	
0	0	-40.8235	7.52939	37.8653	-24.4605	-3.01702	13.7069	-10.4009	-11.7046	-12.9105	-9.18959	-23.6171	-38.1876	-69.4509	23.8255	-35.0364	-62.8757	22.4633	-61.7566	-59.0622	15.9088	-92.1315	-95.8303	23.1427	-38.1528	-100.061	20.95	-67.7318	-102.584	8.0808	-98.3048	-113.001	12.7198	-31.0494	-120.019	10.2558	-52.8714	-126.205	-0.934874	-78.305	-131.102	-2.39283	-13.2648	-137.817	-7.42577	-30.9842	-141.946	-14.7495	-55.2482	-107.729	21.6915	19.9301	-105.207	20.1657	54.7768	-75.4527	28.5394	31.7474	
1	0.00833333	-43.7642	6.33536	35.6084	-24.919	-2.68713	12.4121	-16.7414	-12.6953	-12.663	-10.7537	-24.805	-36.9454	-71.1385	23.4104	-36.7697	-65.8334	21.8879	-66.2555	-62.3027	14.3842	-93.0724	-96.6634	22.9699	-41.0026	-99.7975	21.0941	-65.7299	-103.768	7.63073	-98.5481	-118.027	11.5016	-28.5035	-120.047	9.30492	-53.7244	-127.288	-2.80862	-83.5232	-128.888	-2.96844	-10.2646	-140.376	-9.04967	-36.1242	-146.267	-15.203	-54.0206	-110.326	19.2556	23.411	-106.13	21.2175	51.6288	-75.9186	27.4288	29.5001	
2	0.0166667	-44.1999	5.49584	37.5517	-27.1235	-3.31781	15.2157	-13.9926	-13.5709	-15.8168	-11.7478	-24.0209	-32.3056	-66.459	23.5544	-40.2875	-66.2893	21.3292	-63.8004	-58.9261	16.3305	-89.0235	-98.7066	22.1947	-37.3186	-100.355	20.052	-66.6545	-100.885	9.18109	-97.5038	-113.022	12.1199	-27.4101	-121.363	7.55889	-57.6545	-128.35	-3.18722	-82.0018	-131.222	-2.47248	-11.1167	-140.548	-9.34526	-33.5422	-144.653	-16.8494	-53.727	-111.492	19.7415	23.033	-105.581	19.7019	51.1668	-77.3385	26.5236	32.4899	
3	0.025	-41.4383	5.9377	32.8613	-28.0652	-4.33067	12.3567	-15.3287	-14.0915	-13.4201	-9.66006	-24.6306	-30.7905	-69.1416	22.178	-39.5632	-62.1402	21.2169	-67.0054	-64.3544	14.9432	-87.7264	-96.0095	21.5543	-36.4154	-100.711	18.8281	-68.4953	-103.442	8.06251	-97.5423	-113.373	11.8753	-30.0111	-122.162	7.1945	-55.9345	-126.124	-0.712795	-77.704	-126.618	-2.59914	-10.5496	-137.165	-6.6869	-33.7759	-146.697	-14.1398	-53.4728	-109.924	18.8881	19.9238	-109.437	19.0084	50.7225	-76.2824	26.9084	29.4739	
4	0.0333333	-45.4777	4.7812	36.3564	-26.576	-3.63112	10.1337	-12.0441	-13.0611	-12.7201	-7.32679	-23.8847	-33.936	-66.6786	23.8523	-36.6501	-64.139	22.4678	-62.6313	-60.1701	16.3868	-88.3308	-95.2711	24.2613	-42.5948	-98.4083	18.8312	-71.4483	-101.073	9.44173	-97.1408	-117.841	10.6079	-28.7635	-121.688	8.24789	-58.0796	-128.474	-3.62027	-81.7936	-132.827	-2.64459	-12.0698	-136.523	-4.95668	-32.8169	-147.986	-12.1241	-54.0319	-110.968	20.8334	20.7443	-104.238	20.9736	48.541	-76.8884	26.0122	29.3344	
5	0.0416667	-45.678	6.18887	31.7839	-28.0497	-1.61936	10.2132	-16.3108	-10.5607	-17.664	-9.49548	-21.5137	-37.1144	-67.0463	25.6215	-35.8571	-68.4848	21.267	-67.5609	-62.4222	12.0796	-89.18	-99.6458	24.1235	-41.2508	-99.6177	20.0519	-69.5339	-103.638	2.59666	-96.9927	-119.189	13.2587	-28.7925	-124.997	8.17857	-57.8478	-128.619	-5.64639	-78.9477	-131.792	2.11579	-11.7051	-138.124	-0.6377	-30.9124	-148.743	-10.0704	-53.4266	-107.609	22.3705	24.0922	-106.382	20.138	51.1607	-73.8958	27.5282	30.5424	
6	0.05	-44.8502	8.40845	32.8645	-28.0296	0.640156	9.07322	-20.2161	-8.94031	-14.024	-16.2494	-17.2916	-36.8241	-73.5636	26.0634	-40.0642	-67.2313	19.3843	-64.4803	-66.2075	-2.40947	-84.7391	-101.585	23.716	-41.2673	-99.1403	15.6838	-67.8436	-97.2965	-15.9234	-90.565	-114.908	15.4343	-26.9147	-122.558	6.02385	-55.8616	-118.287	-19.7226	-77.3379	-134.618	3.04996	-10.4427	-141.825	0.177848	-35.4799	-147.781	-8.37627	-55.6624	-107.575	21.3948	25.2112	-108.913	20.1509	54.2552	-78.6597	29.6	33.9174	
